
<svg width="26" height="26" viewBox="0 0 26 26" fill="none" xmlns="http://www.w3.org/2000/svg">
<path d="M9.91667 0H1.41667C1.04094 0 0.680609 0.149255 0.414932 0.414932C0.149255 0.680609 0 1.04094 0 1.41667V9.91667C0 10.2924 0.149255 10.6527 0.414932 10.9184C0.680609 11.1841 1.04094 11.3333 1.41667 11.3333H9.91667C10.2924 11.3333 10.6527 11.1841 10.9184 10.9184C11.1841 10.6527 11.3333 10.2924 11.3333 9.91667V1.41667C11.3333 1.04094 11.1841 0.680609 10.9184 0.414932C10.6527 0.149255 10.2924 0 9.91667 0ZM24.0833 0H15.5833C15.2076 0 14.8473 0.149255 14.5816 0.414932C14.3159 0.680609 14.1667 1.04094 14.1667 1.41667V9.91667C14.1667 10.2924 14.3159 10.6527 14.5816 10.9184C14.8473 11.1841 15.2076 11.3333 15.5833 11.3333H24.0833C24.4591 11.3333 24.8194 11.1841 25.0851 10.9184C25.3507 10.6527 25.5 10.2924 25.5 9.91667V1.41667C25.5 1.04094 25.3507 0.680609 25.0851 0.414932C24.8194 0.149255 24.4591 0 24.0833 0ZM9.91667 14.1667H1.41667C1.04094 14.1667 0.680609 14.3159 0.414932 14.5816C0.149255 14.8473 0 15.2076 0 15.5833V24.0833C0 24.4591 0.149255 24.8194 0.414932 25.0851C0.680609 25.3507 1.04094 25.5 1.41667 25.5H9.91667C10.2924 25.5 10.6527 25.3507 10.9184 25.0851C11.1841 24.8194 11.3333 24.4591 11.3333 24.0833V15.5833C11.3333 15.2076 11.1841 14.8473 10.9184 14.5816C10.6527 14.3159 10.2924 14.1667 9.91667 14.1667ZM19.8333 14.1667C20.942 14.1667 22.0264 14.4919 22.952 15.1021C23.8777 15.7123 24.6041 16.5806 25.0411 17.5995C25.4782 18.6184 25.6067 19.7432 25.4109 20.8344C25.215 21.9257 24.7033 22.9355 23.9392 23.7388C23.1751 24.5421 22.1921 25.1037 21.112 25.3538C20.0319 25.604 18.9022 25.5319 17.8627 25.1463C16.8232 24.7607 15.9196 24.0787 15.2639 23.1847C14.6082 22.2907 14.2292 21.224 14.1737 20.1167L14.1667 19.8333L14.1737 19.55C14.2464 18.098 14.8744 16.7294 15.9278 15.7274C16.9813 14.7254 18.3795 14.1667 19.8333 14.1667Z" fill="#ED1D23"/>
</svg>
