<svg xmlns="http://www.w3.org/2000/svg" width="31" height="27" viewBox="0 0 31 27" fill="none">
<path d="M27.6092 15.337L17.7924 25.1554C17.1416 25.8061 16.259 26.1716 15.3387 26.1716C14.4184 26.1716 13.5358 25.8061 12.885 25.1554L3.06825 15.3387C2.25676 14.5343 1.61215 13.5775 1.17142 12.5233C0.730688 11.4691 0.502523 10.3382 0.500021 9.19561C0.497519 8.05298 0.720729 6.92112 1.15684 5.86499C1.59294 4.80886 2.23336 3.84928 3.04132 3.04132C3.84928 2.23336 4.80886 1.59294 5.86499 1.15684C6.92112 0.720729 8.05298 0.497519 9.1956 0.500021C10.3382 0.502523 11.4691 0.730688 12.5233 1.17142C13.5775 1.61215 14.5343 2.25676 15.3387 3.06825C16.9726 1.475 19.1685 0.589628 21.4506 0.603926C23.7326 0.618225 25.9172 1.53104 27.531 3.14464C29.1449 4.75824 30.058 6.94268 30.0726 9.22477C30.0872 11.5069 29.2022 13.7028 27.6092 15.337Z" stroke="currentColor" stroke-linecap="round" stroke-linejoin="round"/>
</svg>