
<svg width="24" height="24" viewBox="0 0 24 24" fill="none" xmlns="http://www.w3.org/2000/svg">
<path d="M1 0C0.734784 0 0.48043 0.105357 0.292893 0.292893C0.105357 0.48043 0 0.734784 0 1C0 1.26522 0.105357 1.51957 0.292893 1.70711C0.48043 1.89464 0.734784 2 1 2H1.492C1.70914 2.00038 1.92026 2.07142 2.09346 2.2024C2.26665 2.33338 2.3925 2.51717 2.452 2.726L5.624 13.826C5.80341 14.4524 6.18188 15.0034 6.7022 15.3956C7.22253 15.7878 7.8564 16 8.508 16H17.646C18.2457 16.0001 18.8317 15.8205 19.3283 15.4843C19.8249 15.1481 20.2093 14.6708 20.432 14.114L23.38 6.742C23.5012 6.43865 23.5462 6.11024 23.5112 5.78546C23.4762 5.46068 23.3621 5.14943 23.179 4.87892C22.9959 4.6084 22.7493 4.38685 22.4608 4.23364C22.1723 4.08042 21.8507 4.00021 21.524 4H4.896L4.374 2.176C4.19505 1.54955 3.81703 0.998372 3.29708 0.605793C2.77713 0.213214 2.14351 0.000568736 1.492 0H1ZM7.548 13.274L5.468 6H21.524L18.574 13.372C18.4997 13.5574 18.3716 13.7163 18.2062 13.8282C18.0408 13.9401 17.8457 14 17.646 14H8.508C8.29086 13.9996 8.07974 13.9286 7.90654 13.7976C7.73335 13.6666 7.6075 13.4828 7.548 13.274ZM9 24C9.39397 24 9.78407 23.9224 10.1481 23.7716C10.512 23.6209 10.8427 23.3999 11.1213 23.1213C11.3999 22.8427 11.6209 22.512 11.7716 22.1481C11.9224 21.7841 12 21.394 12 21C12 20.606 11.9224 20.2159 11.7716 19.8519C11.6209 19.488 11.3999 19.1573 11.1213 18.8787C10.8427 18.6001 10.512 18.3791 10.1481 18.2284C9.78407 18.0776 9.39397 18 9 18C8.20435 18 7.44129 18.3161 6.87868 18.8787C6.31607 19.4413 6 20.2044 6 21C6 21.7956 6.31607 22.5587 6.87868 23.1213C7.44129 23.6839 8.20435 24 9 24ZM9 22C8.73478 22 8.48043 21.8946 8.29289 21.7071C8.10536 21.5196 8 21.2652 8 21C8 20.7348 8.10536 20.4804 8.29289 20.2929C8.48043 20.1054 8.73478 20 9 20C9.26522 20 9.51957 20.1054 9.70711 20.2929C9.89464 20.4804 10 20.7348 10 21C10 21.2652 9.89464 21.5196 9.70711 21.7071C9.51957 21.8946 9.26522 22 9 22ZM17 24C17.394 24 17.7841 23.9224 18.1481 23.7716C18.512 23.6209 18.8427 23.3999 19.1213 23.1213C19.3999 22.8427 19.6209 22.512 19.7716 22.1481C19.9224 21.7841 20 21.394 20 21C20 20.606 19.9224 20.2159 19.7716 19.8519C19.6209 19.488 19.3999 19.1573 19.1213 18.8787C18.8427 18.6001 18.512 18.3791 18.1481 18.2284C17.7841 18.0776 17.394 18 17 18C16.2044 18 15.4413 18.3161 14.8787 18.8787C14.3161 19.4413 14 20.2044 14 21C14 21.7956 14.3161 22.5587 14.8787 23.1213C15.4413 23.6839 16.2044 24 17 24ZM17 22C16.7348 22 16.4804 21.8946 16.2929 21.7071C16.1054 21.5196 16 21.2652 16 21C16 20.7348 16.1054 20.4804 16.2929 20.2929C16.4804 20.1054 16.7348 20 17 20C17.2652 20 17.5196 20.1054 17.7071 20.2929C17.8946 20.4804 18 20.7348 18 21C18 21.2652 17.8946 21.5196 17.7071 21.7071C17.5196 21.8946 17.2652 22 17 22Z" fill="black"/>
</svg>