
<svg width="21" height="21" viewBox="0 0 21 21" fill="none" xmlns="http://www.w3.org/2000/svg">
<path d="M11.8933 3.66667C11.8933 4.58667 11.1467 5.33333 10.2267 5.33333V7.33333C11.1991 7.33333 12.1318 6.94703 12.8194 6.25939C13.507 5.57176 13.8933 4.63913 13.8933 3.66667H11.8933ZM10.2267 5.33333C9.30667 5.33333 8.56 4.58667 8.56 3.66667H6.56C6.56 4.63913 6.94631 5.57176 7.63394 6.25939C8.32157 6.94703 9.25421 7.33333 10.2267 7.33333V5.33333ZM8.56 3.66667C8.56 2.74667 9.30667 2 10.2267 2V0C9.25421 0 8.32157 0.386308 7.63394 1.07394C6.94631 1.76157 6.56 2.69421 6.56 3.66667H8.56ZM10.2267 2C11.1467 2 11.8933 2.74667 11.8933 3.66667H13.8933C13.8933 2.69421 13.507 1.76157 12.8194 1.07394C12.1318 0.386308 11.1991 0 10.2267 0V2ZM1.11467 15.4747L0.156 15.1893L0 15.712L0.356 16.1253L1.11467 15.4747ZM19.3387 15.4747L20.0987 16.1267L20.4533 15.7133L20.2973 15.1893L19.3387 15.4747ZM6.22667 12.6667H14.2267V10.6667H6.22667V12.6667ZM6.22667 10.6667C4.86269 10.6663 3.53505 11.1063 2.44125 11.9212C1.34745 12.7361 0.545953 13.8823 0.156 15.1893L2.07333 15.76C2.34033 14.866 2.88877 14.082 3.63708 13.5247C4.38539 12.9673 5.29361 12.6664 6.22667 12.6667V10.6667ZM10.2267 18.6667C8.63922 18.6685 7.07028 18.3259 5.62811 17.6624C4.18594 16.999 2.90488 16.0306 1.87333 14.824L0.356 16.1253C1.57528 17.5506 3.08912 18.6959 4.79319 19.4797C6.49725 20.2635 8.351 20.6685 10.2267 20.6667V18.6667ZM14.2267 12.6667C16.1867 12.6667 17.8467 13.9707 18.38 15.76L20.2973 15.1893C19.9074 13.8823 19.1059 12.7361 18.0121 11.9212C16.9183 11.1063 15.5906 10.6663 14.2267 10.6667V12.6667ZM18.58 14.824C17.5484 16.0306 16.2674 16.999 14.8252 17.6624C13.383 18.3259 11.8141 18.6685 10.2267 18.6667V20.6667C12.1023 20.6685 13.9561 20.2635 15.6601 19.4797C17.3642 18.6959 18.8794 17.552 20.0987 16.1267L18.58 14.824Z" fill="black"/>
</svg>
