<svg width="46" height="46" viewBox="0 0 46 46" fill="none" xmlns="http://www.w3.org/2000/svg">
    <path d="M36.2623 45.5598C41.3972 45.5598 45.5598 41.3972 45.5598 36.2623C45.5598 31.1275 41.3972 26.9648 36.2623 26.9648C31.1275 26.9648 26.9648 31.1275 26.9648 36.2623C26.9648 41.3972 31.1275 45.5598 36.2623 45.5598Z" fill="#FFE066"/>
    <path d="M42.5316 36.1166V36.4254C42.5316 37.1154 41.9716 37.6754 41.2816 37.6754H37.6654V41.2804C37.6654 41.9704 37.1054 42.5304 36.4154 42.5304H36.1104C35.4204 42.5304 34.8604 41.9704 34.8604 41.2804V37.6754H31.2441C30.5541 37.6754 29.9941 37.1154 29.9941 36.4254V36.1166C29.9941 35.4266 30.5541 34.8666 31.2441 34.8666H34.8604V31.2441C34.8604 30.5541 35.4204 29.9941 36.1104 29.9941H36.4154C37.1054 29.9941 37.6654 30.5541 37.6654 31.2441V34.8666H41.2816C41.9716 34.8666 42.5316 35.4266 42.5316 36.1166Z" fill="#83BC71"/>
    <path d="M42.525 21.2625C42.525 23.325 42.225 25.325 41.6875 27.2125C40.1 26.2625 38.25 25.7125 36.2625 25.7125C30.4375 25.7125 25.7125 30.4375 25.7125 36.2625C25.7125 38.25 26.2625 40.1 27.2125 41.6875C25.325 42.225 23.325 42.525 21.2625 42.525C9.5125 42.525 0 33.0125 0 21.2625C0 9.5125 9.5125 0 21.2625 0C33.0125 0 42.525 9.5125 42.525 21.2625Z" fill="#FFE066"/>
    <path d="M34.4902 4.62891L9.22266 38.7852C12.6452 41.1402 16.7889 42.5252 21.2627 42.5252C23.3252 42.5252 25.3252 42.2252 27.2127 41.6877C26.2627 40.1002 25.7127 38.2502 25.7127 36.2627C25.7127 30.4377 30.4377 25.7127 36.2627 25.7127C38.2502 25.7127 40.1002 26.2627 41.6877 27.2127C42.2252 25.3252 42.5252 23.3252 42.5252 21.2627C42.5252 14.5177 39.3814 8.52266 34.4902 4.62891Z" fill="#F2CD64"/>
    <path d="M21.2634 20.0116C19.6059 20.0116 18.2571 18.6629 18.2571 17.0054C18.2571 15.3479 19.6059 13.9991 21.2634 13.9991C22.9209 13.9991 24.2696 15.3479 24.2696 17.0054C24.2696 17.6954 24.8296 18.2554 25.5196 18.2554C26.2096 18.2554 26.7696 17.6954 26.7696 17.0054C26.7696 14.5054 25.0859 12.4141 22.7996 11.7441V9.2666C22.7996 8.5766 22.2396 8.0166 21.5496 8.0166C20.8596 8.0166 20.2996 8.5766 20.2996 9.2666V11.5966C17.7221 12.0554 15.7559 14.2991 15.7559 17.0054C15.7559 20.0416 18.2259 22.5116 21.2621 22.5116C22.9196 22.5116 24.2684 23.8616 24.2684 25.5191C24.2684 27.1766 22.9209 28.5254 21.2634 28.5254C19.6059 28.5254 18.2571 27.1766 18.2571 25.5191C18.2571 24.8279 17.6971 24.2691 17.0071 24.2691C16.3171 24.2691 15.7571 24.8279 15.7571 25.5191C15.7571 28.2254 17.7234 30.4704 20.3009 30.9279V33.2604C20.3009 33.9516 20.8609 34.5104 21.5509 34.5104C22.2409 34.5104 22.8009 33.9516 22.8009 33.2604V30.7804C25.0871 30.1104 26.7709 28.0179 26.7709 25.5191C26.7696 22.4816 24.2996 20.0116 21.2634 20.0116Z" fill="#50514F"/>
</svg>
