<svg xmlns="http://www.w3.org/2000/svg" width="46" height="46" viewBox="0 0 46 46" fill="none">
<path d="M36.6922 25.2196L25.7852 36.1107C25.0621 36.8325 24.0814 37.2379 23.059 37.2379C22.0365 37.2379 21.0558 36.8325 20.3327 36.1107L9.42574 25.2216C8.52413 24.3293 7.80793 23.268 7.31825 22.0986C6.82857 20.9292 6.57507 19.6748 6.57229 18.4073C6.56951 17.1399 6.81751 15.8843 7.30205 14.7128C7.78659 13.5413 8.49813 12.4769 9.39582 11.5807C10.2935 10.6844 11.3597 9.97407 12.5331 9.49031C13.7065 9.00656 14.9641 8.75897 16.2336 8.76174C17.5031 8.76452 18.7596 9.01761 19.9309 9.50649C21.1022 9.99537 22.1652 10.7104 23.059 11.6105C24.8743 9.84324 27.314 8.86114 29.8496 8.877C32.3851 8.89286 34.8123 9.9054 36.6054 11.6953C38.3984 13.4852 39.413 15.9083 39.4292 18.4397C39.4455 20.9711 38.4621 23.407 36.6922 25.2196Z" stroke="currentColor" stroke-width="2" stroke-linecap="round" stroke-linejoin="round"/>
</svg>