<svg xmlns="http://www.w3.org/2000/svg" width="24" height="24" viewBox="0 0 24 24" fill="none">
<path d="M11.875 4C7.4875 4 4 7.4875 4 11.875C4 16.2625 7.4875 19.75 11.875 19.75C16.2625 19.75 19.75 16.2625 19.75 11.875C19.75 7.4875 16.2625 4 11.875 4ZM11.875 18.625C8.1625 18.625 5.125 15.5875 5.125 11.875C5.125 8.1625 8.1625 5.125 11.875 5.125C15.5875 5.125 18.625 8.1625 18.625 11.875C18.625 15.5875 15.5875 18.625 11.875 18.625Z" fill="currentColor"/>
<path d="M14.9125 15.8125L11.875 12.775L8.8375 15.8125L7.9375 14.9125L10.975 11.875L7.9375 8.8375L8.8375 7.9375L11.875 10.975L14.9125 7.9375L15.8125 8.8375L12.775 11.875L15.8125 14.9125L14.9125 15.8125Z" fill="currentColor"/>
</svg>