<svg width="18" height="18" viewBox="0 0 18 18" fill="none" xmlns="http://www.w3.org/2000/svg">
<path fill-rule="evenodd" clip-rule="evenodd" d="M12.046 8.2057C12.2567 8.41664 12.375 8.70258 12.375 9.0007C12.375 9.29883 12.2567 9.58477 12.046 9.7957L7.80399 14.0392C7.69949 14.1437 7.57544 14.2265 7.43892 14.283C7.30241 14.3395 7.1561 14.3686 7.00835 14.3685C6.8606 14.3685 6.7143 14.3394 6.57781 14.2828C6.44132 14.2262 6.31732 14.1433 6.21287 14.0388C6.10842 13.9343 6.02557 13.8103 5.96906 13.6738C5.91255 13.5372 5.88348 13.3909 5.88352 13.2432C5.88355 13.0954 5.91269 12.9491 5.96926 12.8127C6.02584 12.6762 6.10874 12.5522 6.21324 12.4477L9.65949 9.0007L6.21249 5.5537C6.10499 5.44998 6.01923 5.32588 5.96021 5.18865C5.90118 5.05143 5.87008 4.90382 5.86871 4.75444C5.86734 4.60507 5.89574 4.45692 5.95224 4.31863C6.00874 4.18035 6.09222 4.0547 6.19779 3.94902C6.30337 3.84334 6.42894 3.75975 6.56717 3.70312C6.7054 3.64649 6.85353 3.61795 7.00291 3.61918C7.15228 3.62041 7.29992 3.65137 7.4372 3.71026C7.57448 3.76916 7.69866 3.8548 7.80249 3.9622L12.046 8.2057Z" fill="black"/>
</svg>
