<svg xmlns="http://www.w3.org/2000/svg" width="32" height="32" viewBox="0 0 32 32" fill="none">
<path d="M30 11.8161C30.0046 13.8678 29.2043 15.8415 27.7671 17.3229C24.4717 20.6976 21.2748 24.2163 17.8579 27.467C17.0736 28.2004 15.8302 28.1737 15.081 27.407L5.23259 17.3242C2.2558 14.2762 2.2558 9.35608 5.23259 6.30937C5.93614 5.58002 6.78232 4.99938 7.71984 4.60264C8.65737 4.2059 9.6667 4.00133 10.6867 4.00133C11.7066 4.00133 12.7159 4.2059 13.6535 4.60264C14.591 4.99938 15.4372 5.58002 16.1407 6.30937L16.4998 6.67471L16.8576 6.30937C17.562 5.58101 18.4083 5.00094 19.3456 4.60407C20.2829 4.20719 21.2918 4.00171 22.3116 4C24.3637 4 26.3252 4.83201 27.7657 6.30937C29.2035 7.79052 30.0043 9.76424 30 11.8161Z" stroke="currentColor" stroke-width="2" stroke-linejoin="round"/>
</svg>